<svg xmlns="http://www.w3.org/2000/svg" width="228.729" height="282.535" viewBox="0 0 60.518 74.754"><path d="M47.698 49.841l-1.152-.772-.792 1.138c-3.983 5.719-9.198 11.312-15.51 16.638a102.753 102.753 0 0 1-6.932-6.401l-.948-.965-1.004.908-3.015 2.726-1.09.986 1.029 1.05c2.958 3.016 6.259 5.991 9.81 8.842a3.477 3.477 0 0 0 2.165.763c.781 0 1.55-.27 2.164-.762 7.81-6.277 14.215-12.971 19.038-19.899l.821-1.179-1.193-.8z" fill="#7fb800"/><path d="M30.244 0C13.567 0 0 13.567 0 30.244c0 1.927.18 3.83.533 5.655.031.196.106.566.21 1.03A29.823 29.823 0 0 0 2.76 42.88c2.214 5.206 5.446 10.466 9.608 15.633l.937 1.164 1.108-1.002 3.017-2.728.985-.891-.83-1.038c-3.705-4.629-6.563-9.296-8.495-13.872l-.107-.254-.02-.02a24.087 24.087 0 0 1-1.466-4.318v-.047l-.046-.175a4.974 4.974 0 0 1-.098-.462l-.005-.03-.002-.013v-.029l-.026-.133a23.31 23.31 0 0 1-.426-4.436c0-12.876 10.475-23.35 23.35-23.35 12.876 0 23.35 10.474 23.35 23.35 0 1.51-.143 3.007-.426 4.449l-.026.134v.012c-.021.104-.06.297-.119.564l-.032.148v.024a22.618 22.618 0 0 1-1.464 4.31l-.021.021-.108.255a47.802 47.802 0 0 1-1.252 2.716l-.554 1.11 1.03.692 3.427 2.297 1.318.883.724-1.412a55.312 55.312 0 0 0 1.667-3.552 29.587 29.587 0 0 0 2.018-5.95c.105-.47.18-.844.21-1.038.353-1.901.532-3.802.532-5.648C60.487 13.566 46.906 0 30.244 0" fill="#fff"/></svg>